<svg width="48" height="48" viewBox="0 0 24 24" fill="none" xmlns="http://www.w3.org/2000/svg">
  <path d="M12 12C14.21 12 16 10.21 16 8C16 5.79 14.21 4 12 4C9.79 4 8 5.79 8 8C8 10.21 9.79 12 12 12ZM12 14C9.33 14 4 15.34 4 18V20H20V18C20 15.34 14.67 14 12 14Z" fill="currentColor"/>
  <path d="M12 6C13.1 6 14 6.9 14 8C14 9.1 13.1 10 12 10C10.9 10 10 9.1 10 8C10 6.9 10.9 6 12 6ZM12 12C14.67 12 20 13.34 20 16V18H4V16C4 13.34 9.33 12 12 12Z" fill="currentColor"/>
  <path d="M8 4C9.1 4 10 4.9 10 6C10 7.1 9.1 8 8 8C6.9 8 6 7.1 6 6C6 4.9 6.9 4 8 4ZM16 4C17.1 4 18 4.9 18 6C18 7.1 17.1 8 16 8C14.9 8 14 7.1 14 6C14 4.9 14.9 4 16 4Z" fill="currentColor"/>
</svg> 