<svg width="81" height="75" viewBox="0 0 81 75" fill="none" xmlns="http://www.w3.org/2000/svg">
<path d="M80.8295 40.5382C80.3116 45.913 78.6237 51.1093 75.8845 55.7626C73.1468 60.4158 69.4248 64.4134 64.9789 67.4749C60.5331 70.5364 55.4711 72.5879 50.1486 73.4853C44.8276 74.3825 39.3741 74.1043 34.1701 72.6696C28.9677 71.2349 24.1412 68.6787 20.0292 65.1803C15.9188 61.6821 12.6211 57.3261 10.3701 52.4183C8.12065 47.5103 6.96942 42.1692 7.00062 36.7695C7.03182 31.3697 8.24233 26.042 10.5495 21.1602C17.0326 7.47889 31.5697 -1.3517 47.506 0.17001C67.8539 2.11155 82.7747 20.1863 80.8295 40.5382Z" fill="#C4D0FB"/>
<path d="M58.5732 38.4823C63.6406 32.4878 62.9188 24.1129 56.96 19.7764C51.0031 15.4399 42.064 16.784 36.9966 22.7785C31.9292 28.7731 32.651 37.148 38.6098 41.4845C44.5685 45.8209 53.5058 44.4768 58.5732 38.4823Z" fill="#001833"/>
<path d="M10.7396 27.4606L11.6044 26.0015C11.9681 25.2731 12.2908 24.528 12.5725 23.7689C13.0084 22.5777 12.8556 20.8796 14.7649 19.2761C16.6742 17.6725 13.8506 18.1151 12.8966 18.8545C12.1012 19.4704 11.4543 21.2185 10.6631 21.6124C10.482 21.3751 10.339 21.1151 10.2385 20.8402L8.50895 13.3203C8.48348 13.1998 8.41271 13.0917 8.30939 13.016C8.20465 12.9403 8.07443 12.9018 7.9428 12.9079L7.62576 12.9171C7.54933 12.9209 7.47432 12.9395 7.40496 12.9718C7.33702 13.0041 7.27616 13.0493 7.22804 13.1046C7.1785 13.1599 7.14312 13.224 7.1233 13.2928C7.10207 13.3616 7.09783 13.4336 7.10915 13.5041C7.37524 15.1129 8.29948 19.8999 8.20606 19.9025L8.01499 19.9866L5.36258 12.3694C5.32578 12.2491 5.24228 12.1458 5.12905 12.0788C5.0144 12.0119 4.87852 11.9863 4.74548 12.007L4.32087 12.0726C4.24727 12.0834 4.1765 12.1079 4.11422 12.145C4.05053 12.1819 3.99675 12.2303 3.95429 12.2875C3.91324 12.3445 3.88352 12.409 3.86936 12.4769C3.85521 12.5446 3.85663 12.6145 3.8722 12.682C4.27982 14.4339 6.18633 20.2637 6.09008 20.2689L5.85655 20.3425L2.9791 14.0386C2.93947 13.9131 2.84888 13.8066 2.72574 13.741C2.60402 13.6755 2.45965 13.6561 2.32236 13.6867L1.98409 13.7642C1.91332 13.7802 1.8468 13.8089 1.78877 13.8487C1.73074 13.8885 1.6812 13.9387 1.64299 13.9962C1.60619 14.0539 1.58071 14.1177 1.56939 14.1843C1.55806 14.2507 1.56231 14.3186 1.57929 14.384L4.16801 20.5854L3.93023 20.7246L1.21837 16.245C1.16601 16.1297 1.06976 16.0362 0.948038 15.9819C0.827732 15.9277 0.689025 15.9167 0.558811 15.9508L0.397459 15.9955C0.258752 16.0331 0.142692 16.1192 0.0719232 16.2354C0.00115462 16.3516 -0.0186606 16.4889 0.0181391 16.618C0.278567 17.5373 1.57505 19.4665 2.32944 21.4772C2.91965 23.0347 2.9607 24.2824 3.93447 26.1683C4.34493 26.9681 5.12621 27.9176 5.55224 28.4469" fill="#FFCCD7"/>
<path d="M59.9151 70.4753C53.621 73.7869 46.3417 75.1231 39.1615 74.2848C31.9827 73.4466 25.2866 70.4788 20.0724 65.8236L20.4772 56.1931L7.48408 54.2022C5.56625 53.7134 3.89894 52.6064 2.78221 51.0798C1.66548 49.5532 1.17152 47.7072 1.38949 45.8732L2.45243 26.9696L12.7181 27.6262L13.0012 30.0322L14.5878 42.7292C14.5878 42.7292 25.3277 43.9755 39.9838 47.4571C54.2508 50.8467 58.453 62.6021 59.9151 70.4753Z" fill="#6A5AE0"/>
<path d="M20.3358 56.0708L20.4561 52.7888" stroke="#C4D0FB" stroke-width="1.43801" stroke-linecap="square"/>
<path d="M33.2257 51.2206C32.4529 50.7016 31.8839 49.9631 31.6051 49.1172C31.3248 48.2712 31.3503 47.3637 31.6758 46.5321L36.7853 33.5147C36.9594 32.9866 37.2482 32.497 37.6331 32.0756C38.0167 31.6543 38.4909 31.3099 39.023 31.0636C39.5566 30.8172 40.1369 30.674 40.7314 30.6426C41.3259 30.6113 41.9203 30.6924 42.4794 30.8811C43.0399 31.0699 43.5508 31.3623 43.9853 31.7404C44.4184 32.1187 44.7652 32.5748 45.003 33.0812C45.2408 33.5875 45.3653 34.1334 45.3682 34.6856C45.371 35.2379 45.2535 35.785 45.0214 36.2936L39.9105 49.3124C39.6769 49.9026 39.3005 50.4348 38.8093 50.8672C38.3182 51.2997 37.7251 51.6207 37.0783 51.8052C36.4301 51.9896 35.745 52.0324 35.077 51.9303C34.4089 51.8283 33.7748 51.584 33.2257 51.2167V51.2206Z" fill="#FFCCD7"/>
<path d="M34.0931 43.9624L33.2439 43.6695C32.2559 43.3293 31.3614 42.7914 30.624 42.0939C29.8852 41.3964 29.3233 40.5567 28.9737 39.6342C28.6255 38.7119 28.501 37.7296 28.6085 36.7573C28.7161 35.7849 29.053 34.8466 29.5951 34.0088L32.2843 29.8588C33.1519 28.5186 34.5007 27.5048 36.0944 26.9957C37.6867 26.4865 39.422 26.5145 40.9959 27.0746C42.7707 27.7067 44.2017 28.9671 44.9759 30.5785C45.7487 32.19 45.8011 34.0205 45.1203 35.6675L43.2803 40.1104C42.6037 41.7456 41.2605 43.0673 39.5395 43.7885C37.8198 44.5096 35.8623 44.5721 34.0931 43.9624Z" fill="#FFCCD7"/>
<path d="M34.7712 32.2133L31.0898 34.987L32.5349 35.9943" stroke="#24272D" stroke-width="1.43801" stroke-linecap="square"/>
<path d="M35.7067 34.1727C36.1356 34.1727 36.4838 33.8499 36.4838 33.4517C36.4838 33.0535 36.1356 32.7307 35.7067 32.7307C35.2779 32.7307 34.9297 33.0535 34.9297 33.4517C34.9297 33.8499 35.2779 34.1727 35.7067 34.1727Z" fill="#24272D"/>
<path d="M32.475 32.656C32.9039 32.656 33.2521 32.3332 33.2521 31.935C33.2521 31.5368 32.9039 31.214 32.475 31.214C32.0462 31.214 31.698 31.5368 31.698 31.935C31.698 32.3332 32.0462 32.656 32.475 32.656Z" fill="#24272D"/>
<path d="M56.0315 55.0159C56.0315 55.0159 52.4478 63.3409 45.4672 59.6426C33.9106 53.5187 36.2842 45.4655 39.5424 41.7817C40.8403 40.3148 42.6562 39.6647 44.5514 39.1315C39.0414 34.6229 41.7504 31.0323 41.7504 31.0323C41.7504 31.0323 27.0135 30.1537 31.7791 23.6673C36.5447 17.1809 45.0567 18.0306 49.5689 20.8477C60.0568 27.3984 56.4872 34.0753 58.8806 36.5338C72.4498 50.485 56.0315 55.0159 56.0315 55.0159Z" fill="#001833"/>
<path d="M46.0998 39.7029C47.6241 38.8434 48.1082 37.0006 47.1811 35.5869C46.2554 34.1733 44.2697 33.7241 42.7453 34.5836L40.2373 35.9986C38.7144 36.8582 38.2303 38.7009 39.1559 40.1147C40.083 41.5283 42.0688 41.9775 43.5917 41.118L46.0998 39.7029Z" fill="#FFCCD7"/>
<path d="M45.4149 36.7124L41.8567 38.7178" stroke="#24272D" stroke-width="1.43801" stroke-linecap="square"/>
<path d="M34.6791 38.0261C34.7159 38.485 34.5559 38.939 34.2332 39.2881C33.9091 39.6371 33.4505 39.8529 32.9551 39.8877C32.4612 39.9225 31.9715 39.7737 31.5964 39.4738C31.2199 39.1739 30.9864 38.7476 30.9496 38.2888C30.8703 37.3327 31.9134 37.3419 32.9424 37.2683C33.9714 37.1948 34.5998 37.07 34.6791 38.0261Z" fill="#24272D"/>
</svg>
