<svg width="40" height="40" viewBox="0 0 40 40" fill="none" xmlns="http://www.w3.org/2000/svg">
<path d="M0 20C0 8.95431 8.95431 0 20 0C31.0457 0 40 8.95431 40 20C40 31.0457 31.0457 40 20 40C8.95431 40 0 31.0457 0 20Z" fill="#F3E8FF"/>
<path d="M17.5 25.8333V20.8333C17.5 20.3731 17.3373 19.9803 17.0118 19.6548C16.6864 19.3294 16.2936 19.1667 15.8333 19.1667H14.1667C13.7064 19.1667 13.3136 19.3294 12.9882 19.6548C12.6627 19.9803 12.5 20.3731 12.5 20.8333V25.8333C12.5 26.2936 12.6627 26.6864 12.9882 27.0118C13.3136 27.3373 13.7064 27.5 14.1667 27.5H15.8333C16.2936 27.5 16.6864 27.3373 17.0118 27.0118C17.3373 26.6864 17.5 26.2936 17.5 25.8333ZM17.5 25.8333V17.5C17.5 17.0398 17.6627 16.6469 17.9882 16.3215C18.3136 15.9961 18.7064 15.8333 19.1667 15.8333H20.8333C21.2936 15.8333 21.6864 15.9961 22.0118 16.3215C22.3373 16.6469 22.5 17.0398 22.5 17.5V25.8333M17.5 25.8333C17.5 26.2936 17.6627 26.6864 17.9882 27.0118C18.3136 27.3373 18.7064 27.5 19.1667 27.5H20.8333C21.2936 27.5 21.6864 27.3373 22.0118 27.0118C22.3373 26.6864 22.5 26.2936 22.5 25.8333M22.5 25.8333V14.1667C22.5 13.7064 22.6627 13.3136 22.9882 12.9882C23.3136 12.6627 23.7064 12.5 24.1667 12.5H25.8333C26.2936 12.5 26.6864 12.6627 27.0118 12.9882C27.3373 13.3136 27.5 13.7064 27.5 14.1667V25.8333C27.5 26.2936 27.3373 26.6864 27.0118 27.0118C26.6864 27.3373 26.2936 27.5 25.8333 27.5H24.1667C23.7064 27.5 23.3136 27.3373 22.9882 27.0118C22.6627 26.6864 22.5 26.2936 22.5 25.8333Z" stroke="#A855F7" stroke-width="1.66667" stroke-linejoin="round"/>
</svg>
