<svg width="14" height="14" viewBox="0 0 14 14" fill="none" xmlns="http://www.w3.org/2000/svg">
<g clip-path="url(#clip0_48_362)">
<path d="M5.25 6.58333C5.25 5.84695 5.84695 5.25 6.58333 5.25H11.5C12.2364 5.25 12.8333 5.84695 12.8333 6.58333V11.5C12.8333 12.2364 12.2364 12.8333 11.5 12.8333H6.58333C5.84695 12.8333 5.25 12.2364 5.25 11.5V6.58333Z" stroke="#3B82F6" stroke-width="1.33333" stroke-linejoin="round"/>
<path d="M2.9165 8.74999H2.33317C2.011 8.74999 1.73602 8.63609 1.50821 8.40828C1.28041 8.18048 1.1665 7.90549 1.1665 7.58332V2.33332C1.1665 2.01116 1.28041 1.73617 1.50821 1.50837C1.73602 1.28056 2.011 1.16666 2.33317 1.16666H7.58317C7.90534 1.16666 8.18032 1.28056 8.40813 1.50837C8.63593 1.73617 8.74984 2.01116 8.74984 2.33332V2.91666" stroke="#3B82F6" stroke-width="1.33333" stroke-linecap="round" stroke-linejoin="round"/>
</g>
<defs>
<clipPath id="clip0_48_362">
<rect width="14" height="14" fill="white"/>
</clipPath>
</defs>
</svg>
