<svg width="1040" height="268" viewBox="0 0 1040 268" fill="none" xmlns="http://www.w3.org/2000/svg">
<g clip-path="url(#clip0_6_1204)">
<rect width="1040" height="268" rx="25" fill="#4C47C4"/>
<path opacity="0.1" fill-rule="evenodd" clip-rule="evenodd" d="M30.75 307C56.2932 307 77 286.293 77 260.75C77 235.207 56.2932 214.5 30.75 214.5C5.20683 214.5 -15.5 235.207 -15.5 260.75C-15.5 286.293 5.20683 307 30.75 307Z" fill="white"/>
<path opacity="0.2" fill-rule="evenodd" clip-rule="evenodd" d="M32 342C76.1828 342 112 306.183 112 262C112 217.817 76.1828 182 32 182C-12.1828 182 -48 217.817 -48 262C-48 306.183 -12.1828 342 32 342Z" stroke="white"/>
<path opacity="0.1" fill-rule="evenodd" clip-rule="evenodd" d="M968.75 60C994.293 60 1015 39.2932 1015 13.75C1015 -11.7932 994.293 -32.5 968.75 -32.5C943.206 -32.5 922.5 -11.7932 922.5 13.75C922.5 39.2932 943.206 60 968.75 60Z" fill="white"/>
<path opacity="0.2" fill-rule="evenodd" clip-rule="evenodd" d="M970 95C1014.18 95 1050 59.1828 1050 15C1050 -29.1828 1014.18 -65 970 -65C925.817 -65 890 -29.1828 890 15C890 59.1828 925.817 95 970 95Z" stroke="white"/>
<path d="M110.568 63.5176C110.011 68.8909 108.194 74.0861 105.243 78.7387C102.293 83.3912 98.2809 87.3884 93.4892 90.4496C88.6974 93.511 83.2418 95.5623 77.505 96.4599C71.7682 97.3573 65.8893 97.0792 60.2808 95.6448C54.6721 94.2104 49.4697 91.6548 45.0383 88.1571C40.6071 84.6593 37.0543 80.3043 34.6294 75.3974C32.2043 70.4906 30.9658 65.1508 31.0007 59.7527C31.0357 54.3545 32.3431 49.0289 34.8314 44.1495C41.8184 30.472 57.4835 21.649 74.66 23.17C96.5841 25.1105 112.661 43.1761 110.568 63.5176Z" fill="#C4D0FB"/>
<path d="M96.4411 88.3956L95.0558 89.4235C93.6215 90.4389 92.1151 91.3635 90.5469 92.1909C85.9024 94.6334 80.7767 96.186 75.4734 96.7568C70.1704 97.3274 64.7977 96.9045 59.674 95.513C54.5501 94.1216 49.7796 91.7901 45.6448 88.6564C41.5101 85.5228 38.0954 81.6509 35.603 77.2701C41.9343 72.9522 52.5341 67.7936 66.0927 68.8465C88.7716 70.617 96.4411 88.3956 96.4411 88.3956Z" fill="#6A5AE0"/>
<path d="M69.4199 77.6175C69.1647 77.6182 68.9098 77.6041 68.6566 77.5754C66.9743 77.3895 65.4405 76.5913 64.3927 75.3561C63.3446 74.1211 62.8683 72.5504 63.0684 70.9894L66.0945 47.3705C66.2951 45.8093 67.1558 44.386 68.4875 43.4137C69.1468 42.9324 69.9019 42.5762 70.7095 42.3655C71.5173 42.1549 72.3617 42.0939 73.1949 42.1861C74.0279 42.2783 74.8334 42.5218 75.565 42.9029C76.2967 43.2838 76.9402 43.7948 77.459 44.4065C77.9778 45.0183 78.3618 45.719 78.5888 46.4684C78.8159 47.2178 78.8816 48.0015 78.7823 48.7744L75.7562 72.3933C75.5707 73.8324 74.8238 75.1583 73.6562 76.121C72.4887 77.0836 70.9817 77.616 69.4199 77.6175Z" fill="#FFCCD7"/>
<path d="M74.7673 65.5521L76.1223 65.6924C77.6979 65.8573 79.2935 65.6979 80.7953 65.2256C82.2969 64.7532 83.668 63.9796 84.8109 62.9596C85.9538 61.9397 86.8404 60.6986 87.4075 59.3245C87.9745 57.9505 88.2084 56.4775 88.0922 55.01L87.5172 47.7408C87.3313 45.3931 86.2601 43.1811 84.4913 41.4934C82.7226 39.8057 80.3694 38.7501 77.8455 38.5122C74.9981 38.2442 72.1527 39.0367 69.9349 40.7153C67.7173 42.394 66.3091 44.8212 66.0202 47.4631L65.2401 54.5904C64.9529 57.2134 65.7924 59.8355 67.5761 61.8878C69.3598 63.94 71.9437 65.2566 74.7673 65.5521Z" fill="#FFCCD7"/>
<path d="M68.4909 57.8253L68.4923 57.8244C70.3587 56.7591 70.9409 54.4916 69.7927 52.7598L68.6131 50.9808C67.4649 49.2491 65.0212 48.7089 63.1549 49.7742L63.1534 49.775C61.2871 50.8404 60.7049 53.1079 61.8532 54.8396L63.0327 56.6187C64.1809 58.3504 66.6245 58.8906 68.4909 57.8253Z" fill="#FFCCD7"/>
<path d="M63.6013 52.6507L66.7821 55.7706" stroke="#001833" stroke-width="0.770833" stroke-linecap="square"/>
<path d="M82.5143 48.6641L82.7379 54.506L80.4985 54.5903" stroke="#001833" stroke-width="0.770833" stroke-linecap="square"/>
<path d="M75.8434 56.4042C75.6583 56.7217 75.5425 57.07 75.5023 57.4291C75.4623 57.7882 75.4988 58.1511 75.6099 58.497C75.7209 58.843 75.9044 59.1653 76.1497 59.4455C76.395 59.7258 76.6974 59.9584 77.0396 60.1301C77.3818 60.3019 77.7571 60.4095 78.1441 60.4466C78.5311 60.4838 78.9221 60.4499 79.295 60.3468C79.6679 60.2439 80.0152 60.0735 80.3172 59.8459C80.6193 59.6183 80.8699 59.3378 81.055 59.0202C81.8334 57.6834 80.3187 57.0735 78.8695 56.3512C77.4203 55.629 76.6218 55.0689 75.8434 56.4042Z" fill="#001833"/>
<path d="M69.324 55.3487L72.3501 44.8021L73.0679 42.3062C73.7424 42.9769 74.5321 43.5394 75.4048 43.9706C78.5721 45.5524 88.1211 44.9222 89.4442 38.709C90.5235 33.6423 84.7252 36.5547 81.7562 36.238C77.091 35.7389 73.8547 33.1915 67.4663 36.394C59.8254 40.2299 63.4449 49.6332 63.4449 49.6332C63.4449 49.6332 66.8073 48.4117 69.324 55.3487Z" fill="#001833"/>
<path opacity="0.4" d="M76.4604 65.7232L72.4138 65.3815L76.109 68.7276L76.4604 65.7232Z" fill="#24272D"/>
<path d="M78.2021 51.8193C78.8157 51.8193 79.3133 51.3577 79.3133 50.7882C79.3133 50.2187 78.8157 49.7571 78.2021 49.7571C77.5883 49.7571 77.0908 50.2187 77.0908 50.7882C77.0908 51.3577 77.5883 51.8193 78.2021 51.8193Z" fill="#001833"/>
<path d="M84.8312 51.8193C85.445 51.8193 85.9425 51.3577 85.9425 50.7882C85.9425 50.2187 85.445 49.7571 84.8312 49.7571C84.2174 49.7571 83.72 50.2187 83.72 50.7882C83.72 51.3577 84.2174 51.8193 84.8312 51.8193Z" fill="#001833"/>
<path d="M1014.87 200.219C1014.27 206.044 1012.29 211.675 1009.09 216.718C1005.89 221.76 1001.54 226.093 996.349 229.41C991.154 232.728 985.239 234.951 979.02 235.924C972.802 236.896 966.429 236.594 960.348 235.04C954.269 233.485 948.63 230.715 943.825 226.924C939.022 223.133 935.168 218.412 932.538 213.093C929.909 207.775 928.564 201.986 928.601 196.135C928.637 190.283 930.052 184.509 932.747 179.219C940.323 164.393 957.31 154.823 975.932 156.472C999.708 158.576 1017.14 178.164 1014.87 200.219Z" fill="#C4D0FB"/>
<path d="M929.831 175.911L930.945 174.032C931.413 173.094 931.829 172.134 932.191 171.157C932.753 169.623 932.556 167.436 935.015 165.371C937.474 163.305 933.837 163.875 932.609 164.828C931.584 165.621 930.751 167.872 929.732 168.38C929.499 168.074 929.315 167.739 929.186 167.385L926.958 157.7C926.925 157.545 926.834 157.406 926.701 157.308C926.566 157.211 926.399 157.161 926.229 157.169L925.821 157.181C925.722 157.186 925.626 157.21 925.536 157.252C925.449 157.293 925.37 157.351 925.309 157.423C925.245 157.494 925.199 157.576 925.174 157.665C925.146 157.754 925.141 157.846 925.155 157.937C925.498 160.009 926.688 166.174 926.568 166.177L926.322 166.286L922.906 156.476C922.859 156.321 922.751 156.188 922.605 156.101C922.458 156.015 922.283 155.982 922.111 156.009L921.564 156.094C921.47 156.107 921.379 156.139 921.298 156.187C921.216 156.234 921.147 156.297 921.092 156.37C921.039 156.444 921.001 156.527 920.983 156.614C920.965 156.701 920.967 156.791 920.987 156.878C921.512 159.135 923.967 166.643 923.843 166.649L923.542 166.744L919.836 158.625C919.785 158.464 919.669 158.327 919.51 158.242C919.353 158.158 919.167 158.133 918.991 158.172L918.555 158.272C918.464 158.293 918.378 158.33 918.303 158.381C918.229 158.432 918.165 158.497 918.116 158.571C918.068 158.645 918.036 158.727 918.021 158.813C918.006 158.899 918.012 158.986 918.034 159.07L921.368 167.057L921.061 167.236L917.569 161.467C917.501 161.318 917.377 161.198 917.221 161.128C917.066 161.058 916.887 161.044 916.719 161.088L916.512 161.146C916.333 161.194 916.184 161.305 916.092 161.455C916.001 161.604 915.976 161.781 916.023 161.947C916.359 163.131 918.028 165.616 919 168.205C919.76 170.211 919.813 171.818 921.067 174.247C921.595 175.277 922.602 176.5 923.15 177.181" fill="#FFCCD7"/>
<path d="M993.163 231.308C985.056 235.573 975.682 237.294 966.435 236.215C957.189 235.135 948.566 231.313 941.85 225.318L942.372 212.915L925.638 210.351C923.168 209.721 921.021 208.296 919.583 206.33C918.145 204.364 917.509 201.986 917.789 199.624L919.158 175.279L932.379 176.124L932.744 179.223L934.787 195.575C934.787 195.575 948.618 197.18 967.494 201.664C985.868 206.029 991.28 221.169 993.163 231.308Z" fill="#6A5AE0"/>
<path d="M942.189 212.757L942.344 208.531" stroke="#C4D0FB" stroke-width="1.43801" stroke-linecap="square"/>
<path d="M978.766 186.482C983.833 180.488 983.112 172.113 977.153 167.776C971.196 163.44 962.257 164.784 957.189 170.779C952.122 176.773 952.844 185.148 958.803 189.484C964.761 193.821 973.699 192.477 978.766 186.482Z" fill="#001833"/>
<path d="M958.79 206.511C957.795 205.843 957.062 204.892 956.703 203.802C956.342 202.713 956.375 201.544 956.794 200.473L963.374 183.708C963.599 183.028 963.97 182.397 964.466 181.855C964.96 181.312 965.571 180.869 966.256 180.551C966.943 180.234 967.691 180.05 968.456 180.009C969.222 179.969 969.988 180.073 970.708 180.316C971.429 180.559 972.087 180.936 972.647 181.423C973.205 181.91 973.651 182.498 973.958 183.15C974.264 183.802 974.424 184.505 974.428 185.216C974.432 185.927 974.28 186.632 973.981 187.287L967.399 204.053C967.098 204.814 966.614 205.499 965.981 206.056C965.349 206.613 964.585 207.026 963.752 207.264C962.917 207.501 962.035 207.556 961.174 207.425C960.314 207.294 959.497 206.979 958.79 206.506V206.511Z" fill="#FFCCD7"/>
<path d="M959.907 197.163L958.814 196.786C957.541 196.348 956.389 195.655 955.44 194.757C954.488 193.859 953.764 192.777 953.314 191.589C952.866 190.401 952.705 189.136 952.844 187.884C952.982 186.632 953.416 185.423 954.114 184.344L957.578 179C958.695 177.274 960.432 175.968 962.485 175.312C964.535 174.657 966.77 174.693 968.797 175.414C971.083 176.228 972.926 177.851 973.923 179.927C974.918 182.002 974.986 184.36 974.109 186.481L971.739 192.203C970.868 194.308 969.138 196.011 966.922 196.939C964.707 197.868 962.186 197.949 959.907 197.163Z" fill="#FFCCD7"/>
<path d="M960.78 182.032L956.039 185.604L957.9 186.902" stroke="#24272D" stroke-width="1.43801" stroke-linecap="square"/>
<path d="M961.985 184.556C962.538 184.556 962.986 184.14 962.986 183.627C962.986 183.114 962.538 182.698 961.985 182.698C961.433 182.698 960.985 183.114 960.985 183.627C960.985 184.14 961.433 184.556 961.985 184.556Z" fill="#24272D"/>
<path d="M957.823 182.602C958.376 182.602 958.824 182.186 958.824 181.674C958.824 181.161 958.376 180.745 957.823 180.745C957.271 180.745 956.823 181.161 956.823 181.674C956.823 182.186 957.271 182.602 957.823 182.602Z" fill="#24272D"/>
<path d="M988.161 211.399C988.161 211.399 983.545 222.12 974.555 217.357C959.672 209.471 962.729 199.099 966.925 194.355C968.597 192.466 970.935 191.628 973.376 190.942C966.28 185.135 969.769 180.511 969.769 180.511C969.769 180.511 950.79 179.38 956.927 171.026C963.064 162.672 974.027 163.767 979.838 167.395C993.345 175.831 988.748 184.43 991.83 187.596C1009.31 205.564 988.161 211.399 988.161 211.399Z" fill="#001833"/>
<path d="M975.37 191.678C977.333 190.571 977.957 188.197 976.763 186.377C975.571 184.556 973.013 183.978 971.05 185.085L967.82 186.907C965.859 188.014 965.235 190.387 966.427 192.208C967.621 194.029 970.179 194.607 972.14 193.5L975.37 191.678Z" fill="#FFCCD7"/>
<path d="M974.488 187.826L969.906 190.409" stroke="#24272D" stroke-width="1.43801" stroke-linecap="square"/>
<path d="M960.662 189.518C960.709 190.109 960.503 190.694 960.088 191.143C959.67 191.593 959.08 191.871 958.442 191.916C957.806 191.961 957.175 191.769 956.692 191.383C956.207 190.996 955.906 190.447 955.859 189.856C955.757 188.625 957.1 188.637 958.425 188.542C959.75 188.448 960.56 188.287 960.662 189.518Z" fill="#24272D"/>
</g>
<defs>
<clipPath id="clip0_6_1204">
<rect width="1040" height="268" rx="25" fill="white"/>
</clipPath>
</defs>
</svg>
