<?xml version="1.0" encoding="UTF-8"?>
<svg id="Layer_1" xmlns="http://www.w3.org/2000/svg" version="1.1" viewBox="0 0 612 792">
  <!-- Generator: Adobe Illustrator 29.0.1, SVG Export Plug-In . SVG Version: 2.1.0 Build 192)  -->
  <defs>
    <style>
      .st0 {
        fill: #42dd80;
      }
    </style>
  </defs>
  <path class="st0" d="M19.76,336.64h36.37c13.67,0,42.51,1.38,42.51,23.08,0,7.65-3.64,14.67-13.67,18.18v.25c13.17,4.89,16.18,13.42,16.18,21.57,0,23.95-25.58,27.72-43.27,27.72H19.76v-90.8ZM58.52,373.51c4.77,0,7.02-2.51,7.02-5.64s-2.38-5.64-7.02-5.64h-1.38v11.29h1.38ZM58.77,403.11c5.89,0,8.65-3.14,8.65-7.02s-2.88-7.02-8.65-7.02h-1.63v14.05h1.63Z"/>
  <path class="st0" d="M119.95,414.21c-8.82-8.82-13.23-19.43-13.23-31.84s4.41-23.09,13.23-31.9c8.82-8.82,19.43-13.23,31.84-13.23s23.06,4.41,31.84,13.23c8.82,8.82,13.23,19.45,13.23,31.9s-4.41,23.02-13.23,31.84c-8.78,8.82-19.39,13.23-31.84,13.23s-23.02-4.41-31.84-13.23ZM122.22,352.79c-8.17,8.17-12.25,18.02-12.25,29.58s4.08,21.35,12.25,29.51c8.21,8.21,18.06,12.31,29.58,12.31s21.41-4.1,29.58-12.31c8.16-8.16,12.25-18,12.25-29.51s-4.08-21.41-12.25-29.58c-8.17-8.16-18.02-12.25-29.58-12.25s-21.37,4.08-29.58,12.25ZM124.54,409.62c-7.55-7.55-11.33-16.63-11.33-27.25s3.78-19.74,11.33-27.25c7.55-7.55,16.64-11.33,27.25-11.33s19.74,3.78,27.25,11.33c7.55,7.51,11.33,16.59,11.33,27.25s-3.78,19.7-11.33,27.25c-7.51,7.51-16.59,11.27-27.25,11.27s-19.7-3.76-27.25-11.27ZM126.87,357.39c-6.9,6.9-10.35,15.23-10.35,24.98s3.45,18.02,10.35,24.92c6.9,6.9,15.21,10.35,24.92,10.35s18.08-3.45,24.98-10.35c6.9-6.9,10.35-15.21,10.35-24.92s-3.45-18.08-10.35-24.98c-6.9-6.9-15.23-10.35-24.98-10.35s-18.02,3.45-24.92,10.35ZM129.14,404.97c-6.25-6.25-9.37-13.78-9.37-22.6s3.12-16.41,9.37-22.66c6.29-6.29,13.84-9.43,22.66-9.43s16.41,3.14,22.66,9.43c6.25,6.25,9.37,13.8,9.37,22.66s-3.12,16.35-9.37,22.6c-6.25,6.29-13.8,9.43-22.66,9.43s-16.37-3.14-22.66-9.43ZM131.46,361.98c-5.63,5.63-8.45,12.43-8.45,20.39s2.82,14.7,8.45,20.33c5.63,5.63,12.41,8.45,20.33,8.45s14.74-2.82,20.33-8.45c5.63-5.63,8.45-12.41,8.45-20.33s-2.82-14.76-8.45-20.39c-5.59-5.59-12.37-8.39-20.33-8.39s-14.7,2.8-20.33,8.39ZM133.79,400.37c-5.02-4.98-7.53-10.98-7.53-18s2.51-13.08,7.53-18.06c4.98-4.98,10.98-7.47,18-7.47s13.08,2.49,18.06,7.47c4.98,4.98,7.47,11,7.47,18.06s-2.49,13.02-7.47,18c-4.98,4.98-11,7.47-18.06,7.47s-13.02-2.49-18-7.47ZM136.06,366.63c-4.37,4.33-6.55,9.57-6.55,15.74s2.18,11.37,6.55,15.74c4.37,4.33,9.61,6.49,15.74,6.49s11.41-2.16,15.74-6.49c4.37-4.37,6.55-9.61,6.55-15.74s-2.18-11.41-6.55-15.74c-4.33-4.37-9.57-6.55-15.74-6.55s-11.37,2.18-15.74,6.55Z"/>
  <path class="st0" d="M205.44,336.64h33.99l26.71,38.75.25-.13v-38.63h33.61v90.8h-33.99l-26.71-38.75-.25.13v38.63h-33.61v-90.8Z"/>
  <path class="st0" d="M311.03,336.64h36.37c13.67,0,42.51,1.38,42.51,23.08,0,7.65-3.64,14.67-13.67,18.18v.25c13.17,4.89,16.18,13.42,16.18,21.57,0,23.95-25.58,27.72-43.27,27.72h-38.12v-90.8ZM349.79,373.51c4.77,0,7.02-2.51,7.02-5.64s-2.38-5.64-7.02-5.64h-1.38v11.29h1.38ZM350.04,403.11c5.89,0,8.65-3.14,8.65-7.02s-2.88-7.02-8.65-7.02h-1.63v14.05h1.63Z"/>
  <path class="st0" d="M411.22,414.21c-8.82-8.82-13.23-19.43-13.23-31.84s4.41-23.09,13.23-31.9c8.82-8.82,19.43-13.23,31.84-13.23s23.06,4.41,31.84,13.23c8.82,8.82,13.23,19.45,13.23,31.9s-4.41,23.02-13.23,31.84c-8.78,8.82-19.39,13.23-31.84,13.23s-23.02-4.41-31.84-13.23ZM413.49,352.79c-8.17,8.17-12.25,18.02-12.25,29.58s4.08,21.35,12.25,29.51c8.21,8.21,18.06,12.31,29.58,12.31s21.41-4.1,29.58-12.31c8.16-8.16,12.25-18,12.25-29.51s-4.08-21.41-12.25-29.58c-8.17-8.16-18.02-12.25-29.58-12.25s-21.37,4.08-29.58,12.25ZM415.81,409.62c-7.55-7.55-11.33-16.63-11.33-27.25s3.78-19.74,11.33-27.25c7.55-7.55,16.64-11.33,27.25-11.33s19.74,3.78,27.25,11.33c7.55,7.51,11.33,16.59,11.33,27.25s-3.78,19.7-11.33,27.25c-7.51,7.51-16.59,11.27-27.25,11.27s-19.7-3.76-27.25-11.27ZM418.14,357.39c-6.9,6.9-10.35,15.23-10.35,24.98s3.45,18.02,10.35,24.92c6.9,6.9,15.21,10.35,24.92,10.35s18.08-3.45,24.98-10.35c6.9-6.9,10.35-15.21,10.35-24.92s-3.45-18.08-10.35-24.98c-6.9-6.9-15.23-10.35-24.98-10.35s-18.02,3.45-24.92,10.35ZM420.41,404.97c-6.25-6.25-9.37-13.78-9.37-22.6s3.12-16.41,9.37-22.66c6.29-6.29,13.84-9.43,22.66-9.43s16.41,3.14,22.66,9.43c6.25,6.25,9.37,13.8,9.37,22.66s-3.12,16.35-9.37,22.6c-6.25,6.29-13.8,9.43-22.66,9.43s-16.37-3.14-22.66-9.43ZM422.73,361.98c-5.63,5.63-8.45,12.43-8.45,20.39s2.82,14.7,8.45,20.33c5.63,5.63,12.41,8.45,20.33,8.45s14.74-2.82,20.33-8.45c5.63-5.63,8.45-12.41,8.45-20.33s-2.82-14.76-8.45-20.39c-5.59-5.59-12.37-8.39-20.33-8.39s-14.7,2.8-20.33,8.39ZM425.06,400.37c-5.02-4.98-7.53-10.98-7.53-18s2.51-13.08,7.53-18.06c4.98-4.98,10.98-7.47,18-7.47s13.08,2.49,18.06,7.47c4.98,4.98,7.47,11,7.47,18.06s-2.49,13.02-7.47,18c-4.98,4.98-11,7.47-18.06,7.47s-13.02-2.49-18-7.47ZM427.33,366.63c-4.37,4.33-6.55,9.57-6.55,15.74s2.18,11.37,6.55,15.74c4.37,4.33,9.61,6.49,15.74,6.49s11.41-2.16,15.74-6.49c4.37-4.37,6.55-9.61,6.55-15.74s-2.18-11.41-6.55-15.74c-4.33-4.37-9.57-6.55-15.74-6.55s-11.37,2.18-15.74,6.55Z"/>
  <path class="st0" d="M496.71,336.64h33.99l26.71,38.75.25-.13v-38.63h33.61v90.8h-33.99l-26.71-38.75-.25.13v38.63h-33.61v-90.8Z"/>
</svg>