<svg width="131" height="22" viewBox="0 0 131 22" fill="none" xmlns="http://www.w3.org/2000/svg">
<path d="M0.000244141 0.656647H8.28778C11.4027 0.656647 17.9744 0.971093 17.9744 5.9157C17.9744 7.65884 17.145 9.25843 14.8595 10.0582V10.1152C17.8605 11.2294 18.5464 13.1731 18.5464 15.0302C18.5464 20.4875 12.7175 21.3465 8.68655 21.3465H0.000244141V0.656647ZM8.83239 9.05791C9.91931 9.05791 10.432 8.48598 10.432 7.77277C10.432 7.05956 9.88969 6.48763 8.83239 6.48763H8.51793V9.06019H8.83239V9.05791ZM8.88935 15.8026C10.2315 15.8026 10.8604 15.0871 10.8604 14.203C10.8604 13.3189 10.2041 12.6034 8.88935 12.6034H8.51793V15.8049H8.88935V15.8026Z" fill="#7048FF"/>
<path d="M22.8225 18.3311C20.8128 16.3214 19.8079 13.9038 19.8079 11.076C19.8079 8.24826 20.8128 5.81469 22.8225 3.80723C24.8323 1.79749 27.25 0.792618 30.0778 0.792618C32.9057 0.792618 35.3325 1.79749 37.3331 3.80723C39.3429 5.81697 40.3478 8.23914 40.3478 11.076C40.3478 13.9129 39.3429 16.3214 37.3331 18.3311C35.3325 20.3409 32.9148 21.3458 30.0778 21.3458C27.2409 21.3458 24.8323 20.3409 22.8225 18.3311ZM23.3398 4.33587C21.4781 6.1975 20.5484 8.44194 20.5484 11.076C20.5484 13.7101 21.4781 15.9409 23.3398 17.8002C25.2106 19.671 27.4551 20.6052 30.0801 20.6052C32.7052 20.6052 34.9588 19.671 36.8204 17.8002C38.6798 15.9409 39.6118 13.6987 39.6118 11.076C39.6118 8.45333 38.6821 6.1975 36.8204 4.33587C34.9588 2.47652 32.7143 1.54457 30.0801 1.54457C27.446 1.54457 25.2106 2.47424 23.3398 4.33587ZM23.8685 17.2853C22.1481 15.5649 21.2867 13.4959 21.2867 11.076C21.2867 8.65613 22.1481 6.57803 23.8685 4.86679C25.5889 3.14643 27.6602 2.28512 30.0778 2.28512C32.4955 2.28512 34.5759 3.14643 36.2872 4.86679C38.0076 6.57803 38.869 8.64702 38.869 11.076C38.869 13.505 38.0076 15.5649 36.2872 17.2853C34.5759 18.9965 32.5069 19.8533 30.0778 19.8533C27.6488 19.8533 25.5889 18.9965 23.8685 17.2853ZM24.3994 5.38404C22.8271 6.95628 22.041 8.85437 22.041 11.076C22.041 13.2977 22.8271 15.1821 24.3994 16.7543C25.9717 18.3266 27.8653 19.1127 30.0778 19.1127C32.2904 19.1127 34.1977 18.3266 35.77 16.7543C37.3423 15.1821 38.1284 13.2886 38.1284 11.076C38.1284 8.86348 37.3423 6.95628 35.77 5.38404C34.1977 3.81179 32.2996 3.02567 30.0778 3.02567C27.8561 3.02567 25.9717 3.81179 24.3994 5.38404ZM24.9166 16.2257C23.4925 14.8016 22.7815 13.0858 22.7815 11.076C22.7815 9.06628 23.4925 7.33681 24.9166 5.91267C26.3499 4.47942 28.0703 3.76394 30.0801 3.76394C32.0899 3.76394 33.8194 4.47942 35.2436 5.91267C36.6678 7.33681 37.3787 9.05717 37.3787 11.076C37.3787 13.0949 36.6678 14.8016 35.2436 16.2257C33.8194 17.659 32.099 18.3744 30.0801 18.3744C28.0612 18.3744 26.3499 17.659 24.9166 16.2257ZM25.4453 6.42992C24.1624 7.71279 23.5198 9.26224 23.5198 11.076C23.5198 12.8898 24.1624 14.4256 25.4453 15.7085C26.7282 16.9913 28.2731 17.6339 30.0778 17.6339C31.8826 17.6339 33.4366 16.9913 34.7104 15.7085C35.9933 14.4256 36.6359 12.8807 36.6359 11.076C36.6359 9.27136 35.9933 7.71279 34.7104 6.42992C33.4366 5.15618 31.8917 4.51816 30.0778 4.51816C28.264 4.51816 26.7282 5.15618 25.4453 6.42992ZM25.9762 15.1775C24.8323 14.0428 24.2604 12.6756 24.2604 11.076C24.2604 9.47643 24.8323 8.09559 25.9762 6.96084C27.111 5.82609 28.4782 5.25871 30.0778 5.25871C31.6775 5.25871 33.0584 5.82609 34.1931 6.96084C35.3279 8.09559 35.8953 9.46732 35.8953 11.076C35.8953 12.6847 35.3279 14.0428 34.1931 15.1775C33.0584 16.3123 31.6866 16.8797 30.0778 16.8797C28.4691 16.8797 27.111 16.3123 25.9762 15.1775ZM26.4935 7.48948C25.4977 8.47612 25.001 9.67011 25.001 11.076C25.001 12.4819 25.4977 13.6668 26.4935 14.6626C27.4893 15.6492 28.6833 16.1414 30.0801 16.1414C31.477 16.1414 32.6801 15.6492 33.6668 14.6626C34.6625 13.6668 35.1593 12.4728 35.1593 11.076C35.1593 9.67923 34.6625 8.47612 33.6668 7.48948C32.6801 6.49372 31.4861 5.99698 30.0801 5.99698C28.6742 5.99698 27.4893 6.49372 26.4935 7.48948Z" fill="#7048FF"/>
<path d="M42.3171 0.655769H50.0624L56.1487 9.48541L56.2057 9.45579V0.653488H63.8643V21.3433H56.1191L50.0327 12.5137L49.9758 12.5433V21.3456H42.3171V0.655769Z" fill="#7048FF"/>
<path d="M66.366 0.656631H74.6535C77.7685 0.656631 84.3402 0.971078 84.3402 5.91568C84.3402 7.65882 83.5107 9.25841 81.2252 10.0582V10.1152C84.2262 11.2294 84.9121 13.1731 84.9121 15.0302C84.9121 20.4874 79.0832 21.3465 75.0523 21.3465H66.366V0.656631ZM75.1981 9.0579C76.285 9.0579 76.7977 8.48596 76.7977 7.77275C76.7977 7.05955 76.2554 6.48762 75.1981 6.48762H74.8837V9.06017H75.1981V9.0579ZM75.2551 15.8026C76.5972 15.8026 77.2261 15.0871 77.2261 14.203C77.2261 13.3189 76.5699 12.6034 75.2551 12.6034H74.8837V15.8049H75.2551V15.8026Z" fill="#7048FF"/>
<path d="M89.2083 18.3311C87.1985 16.3214 86.1936 13.9038 86.1936 11.076C86.1936 8.24826 87.1985 5.81469 89.2083 3.80723C91.2181 1.79749 93.6358 0.792618 96.4636 0.792618C99.2914 0.792618 101.718 1.79749 103.719 3.80723C105.729 5.81697 106.734 8.23914 106.734 11.076C106.734 13.9129 105.729 16.3214 103.719 18.3311C101.718 20.3409 99.3005 21.3458 96.4636 21.3458C93.6266 21.3458 91.2181 20.3409 89.2083 18.3311ZM89.7255 4.33587C87.8639 6.1975 86.9342 8.44194 86.9342 11.076C86.9342 13.7101 87.8639 15.9409 89.7255 17.8002C91.5963 19.671 93.8408 20.6052 96.4659 20.6052C99.0909 20.6052 101.345 19.671 103.206 17.8002C105.066 15.9409 105.998 13.6987 105.998 11.076C105.998 8.45333 105.068 6.1975 103.206 4.33587C101.345 2.47652 99.1 1.54457 96.4659 1.54457C93.8317 1.54457 91.5963 2.47424 89.7255 4.33587ZM90.2542 17.2853C88.5338 15.5649 87.6725 13.4959 87.6725 11.076C87.6725 8.65613 88.5338 6.57803 90.2542 4.86679C91.9746 3.14643 94.0459 2.28512 96.4636 2.28512C98.8813 2.28512 100.962 3.14643 102.673 4.86679C104.393 6.57803 105.255 8.64702 105.255 11.076C105.255 13.505 104.393 15.5649 102.673 17.2853C100.962 18.9965 98.8927 19.8533 96.4636 19.8533C94.0345 19.8533 91.9746 18.9965 90.2542 17.2853ZM90.7851 5.38404C89.2129 6.95628 88.4267 8.85437 88.4267 11.076C88.4267 13.2977 89.2129 15.1821 90.7851 16.7543C92.3574 18.3266 94.251 19.1127 96.4636 19.1127C98.6762 19.1127 100.583 18.3266 102.156 16.7543C103.728 15.1821 104.514 13.2886 104.514 11.076C104.514 8.86348 103.728 6.95628 102.156 5.38404C100.583 3.81179 98.6853 3.02567 96.4636 3.02567C94.2419 3.02567 92.3574 3.81179 90.7851 5.38404ZM91.3024 16.2257C89.8782 14.8016 89.1673 13.0858 89.1673 11.076C89.1673 9.06628 89.8782 7.33681 91.3024 5.91267C92.7357 4.47942 94.4561 3.76394 96.4659 3.76394C98.4757 3.76394 100.205 4.47942 101.629 5.91267C103.054 7.33681 103.764 9.05717 103.764 11.076C103.764 13.0949 103.054 14.8016 101.629 16.2257C100.205 17.659 98.4848 18.3744 96.4659 18.3744C94.447 18.3744 92.7357 17.659 91.3024 16.2257ZM91.831 6.42992C90.5482 7.71279 89.9056 9.26224 89.9056 11.076C89.9056 12.8898 90.5482 14.4256 91.831 15.7085C93.1139 16.9913 94.6589 17.6339 96.4636 17.6339C98.2683 17.6339 99.8224 16.9913 101.096 15.7085C102.379 14.4256 103.022 12.8807 103.022 11.076C103.022 9.27136 102.379 7.71279 101.096 6.42992C99.8224 5.15618 98.2774 4.51816 96.4636 4.51816C94.6498 4.51816 93.1139 5.15618 91.831 6.42992ZM92.362 15.1775C91.2181 14.0428 90.6461 12.6756 90.6461 11.076C90.6461 9.47643 91.2181 8.09559 92.362 6.96084C93.4968 5.82609 94.864 5.25871 96.4636 5.25871C98.0632 5.25871 99.4441 5.82609 100.579 6.96084C101.714 8.09559 102.281 9.46732 102.281 11.076C102.281 12.6847 101.714 14.0428 100.579 15.1775C99.4441 16.3123 98.0723 16.8797 96.4636 16.8797C94.8548 16.8797 93.4968 16.3123 92.362 15.1775ZM92.8792 7.48948C91.8835 8.47612 91.3867 9.67011 91.3867 11.076C91.3867 12.4819 91.8835 13.6668 92.8792 14.6626C93.875 15.6492 95.069 16.1414 96.4659 16.1414C97.8627 16.1414 99.0658 15.6492 100.053 14.6626C101.048 13.6668 101.545 12.4728 101.545 11.076C101.545 9.67923 101.048 8.47612 100.053 7.48948C99.0658 6.49372 97.8718 5.99698 96.4659 5.99698C95.0599 5.99698 93.875 6.49372 92.8792 7.48948Z" fill="#7048FF"/>
<path d="M108.683 0.655769H116.428L122.515 9.48541L122.572 9.45579V0.653488H130.23V21.3433H122.485L116.399 12.5137L116.342 12.5433V21.3456H108.683V0.655769Z" fill="#7048FF"/>
</svg>
