<svg width="74" height="74" viewBox="0 0 74 74" fill="none" xmlns="http://www.w3.org/2000/svg">
<path d="M73.83 40.5176C73.313 45.8909 71.6267 51.0861 68.889 55.7387C66.1515 60.3912 62.4289 64.3884 57.9828 67.4496C53.5365 70.511 48.4744 72.5623 43.1513 73.4599C37.8282 74.3573 32.3733 74.0792 27.1692 72.6448C21.9649 71.2104 17.1377 68.6548 13.0259 65.1571C8.91426 61.6593 5.61766 57.3043 3.36762 52.3974C1.11742 47.4906 -0.0317781 42.1508 0.000668415 36.7527C0.033115 31.3545 1.24627 26.0289 3.55512 21.1495C10.0382 7.47201 24.5736 -1.35096 40.5114 0.169972C60.8545 2.11053 75.7721 20.1761 73.83 40.5176Z" fill="#C4D0FB"/>
<path d="M60.7219 65.3956L59.4365 66.4235C58.1055 67.4389 56.7078 68.3635 55.2527 69.1909C50.9431 71.6334 46.1871 73.186 41.2663 73.7568C36.3456 74.3274 31.3604 73.9045 26.6062 72.513C21.8518 71.1216 17.4254 68.7901 13.5887 65.6564C9.75224 62.5228 6.58371 58.6509 4.27112 54.2701C10.1458 49.9522 19.9812 44.7936 32.562 45.8465C53.6055 47.617 60.7219 65.3956 60.7219 65.3956Z" fill="#6A5AE0"/>
<path d="M35.6491 54.6175C35.4124 54.6182 35.1759 54.6041 34.9409 54.5754C33.3799 54.3895 31.9568 53.5913 30.9845 52.3561C30.012 51.1211 29.5701 49.5504 29.7557 47.9894L32.5636 24.3705C32.7497 22.8093 33.5484 21.386 34.784 20.4137C35.3958 19.9324 36.0964 19.5762 36.8458 19.3655C37.5953 19.1549 38.3789 19.0939 39.152 19.1861C39.9249 19.2783 40.6723 19.5218 41.3512 19.9029C42.03 20.2838 42.6272 20.7948 43.1086 21.4065C43.59 22.0183 43.9463 22.719 44.1569 23.4684C44.3676 24.2178 44.4286 25.0015 44.3364 25.7744L41.5285 49.3933C41.3565 50.8324 40.6634 52.1583 39.58 53.121C38.4966 54.0836 37.0983 54.616 35.6491 54.6175Z" fill="#FFCCD7"/>
<path d="M40.611 42.5521L41.8683 42.6924C43.3303 42.8573 44.8108 42.6979 46.2043 42.2256C47.5976 41.7532 48.8699 40.9796 49.9304 39.9596C50.9908 38.9397 51.8135 37.6986 52.3397 36.3245C52.8658 34.9505 53.0828 33.4775 52.975 32.01L52.4415 24.7408C52.269 22.3931 51.275 20.1811 49.6338 18.4934C47.9926 16.8057 45.8092 15.7501 43.4672 15.5122C40.8252 15.2442 38.185 16.0367 36.1272 17.7153C34.0695 19.394 32.7629 21.8212 32.4947 24.4631L31.7709 31.5904C31.5045 34.2134 32.2833 36.8355 33.9384 38.8878C35.5935 40.94 37.9911 42.2566 40.611 42.5521Z" fill="#FFCCD7"/>
<path d="M34.7873 34.8253L34.7885 34.8244C36.5204 33.7591 37.0606 31.4916 35.9951 29.7598L34.9007 27.9808C33.8353 26.2491 31.5677 25.7089 29.8361 26.7742L29.8347 26.775C28.103 27.8404 27.5628 30.1079 28.6282 31.8396L29.7227 33.6187C30.7881 35.3504 33.0554 35.8906 34.7873 34.8253Z" fill="#FFCCD7"/>
<path d="M30.2502 29.6507L33.2016 32.7706" stroke="#001833" stroke-width="0.770833" stroke-linecap="square"/>
<path d="M47.7993 25.6641L48.0068 31.506L45.929 31.5903" stroke="#001833" stroke-width="0.770833" stroke-linecap="square"/>
<path d="M41.6094 33.4042C41.4377 33.7217 41.3302 34.07 41.2929 34.4291C41.2558 34.7882 41.2896 35.1511 41.3928 35.497C41.4957 35.843 41.6661 36.1653 41.8936 36.4455C42.1212 36.7258 42.4019 36.9584 42.7193 37.1301C43.0369 37.3019 43.3851 37.4095 43.7442 37.4466C44.1033 37.4838 44.4661 37.4499 44.8121 37.3468C45.1581 37.2439 45.4804 37.0735 45.7606 36.8459C46.0409 36.6183 46.2735 36.3378 46.4452 36.0202C47.1675 34.6834 45.762 34.0735 44.4173 33.3512C43.0726 32.629 42.3317 32.0689 41.6094 33.4042Z" fill="#001833"/>
<path d="M35.5603 32.3487L38.3682 21.8021L39.0342 19.3062C39.6601 19.9769 40.3928 20.5394 41.2025 20.9706C44.1415 22.5524 53.0019 21.9222 54.2295 15.709C55.231 10.6423 49.8508 13.5547 47.096 13.238C42.7672 12.7389 39.7643 10.1915 33.8366 13.394C26.7467 17.2299 30.1052 26.6332 30.1052 26.6332C30.1052 26.6332 33.2251 25.4117 35.5603 32.3487Z" fill="#001833"/>
<path opacity="0.4" d="M42.182 42.7232L38.4272 42.3815L41.856 45.7276L42.182 42.7232Z" fill="#24272D"/>
<path d="M43.7982 28.8193C44.3676 28.8193 44.8293 28.3577 44.8293 27.7882C44.8293 27.2187 44.3676 26.7571 43.7982 26.7571C43.2287 26.7571 42.7671 27.2187 42.7671 27.7882C42.7671 28.3577 43.2287 28.8193 43.7982 28.8193Z" fill="#001833"/>
<path d="M49.9491 28.8193C50.5186 28.8193 50.9802 28.3577 50.9802 27.7882C50.9802 27.2187 50.5186 26.7571 49.9491 26.7571C49.3796 26.7571 48.918 27.2187 48.918 27.7882C48.918 28.3577 49.3796 28.8193 49.9491 28.8193Z" fill="#001833"/>
</svg>
