<svg width="40" height="40" viewBox="0 0 40 40" fill="none" xmlns="http://www.w3.org/2000/svg">
<path d="M0 20C0 8.95431 8.95431 0 20 0C31.0457 0 40 8.95431 40 20C40 31.0457 31.0457 40 20 40C8.95431 40 0 31.0457 0 20Z" fill="#DBEAFE"/>
<path d="M17.5001 14.1667H15.8334C15.3732 14.1667 14.9803 14.3294 14.6549 14.6548C14.3295 14.9803 14.1667 15.3731 14.1667 15.8333V25.8333C14.1667 26.2936 14.3295 26.6864 14.6549 27.0118C14.9803 27.3373 15.3732 27.5 15.8334 27.5H24.1667C24.627 27.5 25.0198 27.3373 25.3453 27.0118C25.6707 26.6864 25.8334 26.2936 25.8334 25.8333V15.8333C25.8334 15.3731 25.6707 14.9803 25.3453 14.6548C25.0198 14.3294 24.627 14.1667 24.1667 14.1667H22.5001M17.5001 14.1667C17.5001 14.6269 17.6628 15.0197 17.9882 15.3452C18.3137 15.6706 18.7065 15.8333 19.1667 15.8333H20.8334C21.2937 15.8333 21.6865 15.6706 22.0119 15.3452C22.3374 15.0197 22.5001 14.6269 22.5001 14.1667M17.5001 14.1667C17.5001 13.7064 17.6628 13.3136 17.9882 12.9882C18.3137 12.6627 18.7065 12.5 19.1667 12.5H20.8334C21.2937 12.5 21.6865 12.6627 22.0119 12.9882C22.3374 13.3136 22.5001 13.7064 22.5001 14.1667M20.0001 20H22.5001M20.0001 23.3333H22.5001M17.5001 20H17.5084M17.5001 23.3333H17.5084" stroke="#3B82F6" stroke-width="1.66667" stroke-linecap="round" stroke-linejoin="round"/>
</svg>
