<svg width="40" height="40" viewBox="0 0 40 40" fill="none" xmlns="http://www.w3.org/2000/svg">
<path d="M0 20C0 8.95431 8.95431 0 20 0C31.0457 0 40 8.95431 40 20C40 31.0457 31.0457 40 20 40C8.95431 40 0 31.0457 0 20Z" fill="#DCFCE7"/>
<path d="M17.5 20L19.1667 21.6667L22.5 18.3333M27.5 20C27.5007 22.0716 26.7688 23.8399 25.3042 25.305C23.8396 26.7701 22.0716 27.5026 20 27.5026C17.9284 27.5026 16.1604 26.7701 14.6958 25.305C13.2312 23.8399 12.4993 22.0716 12.5 20C12.5007 17.9294 13.2333 16.1622 14.6976 14.6984C16.162 13.2345 17.9294 12.5026 20 12.5026C22.0706 12.5026 23.838 13.2345 25.3024 14.6984C26.7667 16.1622 27.4993 17.9294 27.5 20Z" stroke="#22C55E" stroke-width="1.66667" stroke-linecap="round" stroke-linejoin="round"/>
</svg>
